<mxfile host="Electron" modified="2023-10-19T03:34:02.542Z" agent="Mozilla/5.0 (Windows NT 10.0; Win64; x64) AppleWebKit/537.36 (KHTML, like Gecko) draw.io/21.6.8 Chrome/114.0.5735.289 Electron/25.5.0 Safari/537.36" etag="cMh19agt1tsZBUR7JQTE" version="21.6.8" type="device">
  <diagram name="PÃ¡gina-1" id="-OF3cr4fAQsW-beNw5pF">
    <mxGraphModel dx="1832" dy="1202" grid="1" gridSize="10" guides="1" tooltips="1" connect="1" arrows="1" fold="1" page="1" pageScale="1" pageWidth="827" pageHeight="1169" math="0" shadow="0">
      <root>
        <mxCell id="0" />
        <mxCell id="1" parent="0" />
        <mxCell id="UaEgps9c6D1fpQJmHc5u-1" value="&amp;lt;&amp;lt;Interface&amp;gt;&amp;gt;&lt;br&gt;Parcela" style="swimlane;fontStyle=0;childLayout=stackLayout;horizontal=1;startSize=40;fillColor=none;horizontalStack=0;resizeParent=1;resizeParentMax=0;resizeLast=0;collapsible=1;marginBottom=0;whiteSpace=wrap;html=1;" vertex="1" parent="1">
          <mxGeometry x="230" y="90" width="170" height="66" as="geometry" />
        </mxCell>
        <mxCell id="UaEgps9c6D1fpQJmHc5u-2" value="+ gananciaAnual(): double" style="text;strokeColor=none;fillColor=none;align=left;verticalAlign=top;spacingLeft=4;spacingRight=4;overflow=hidden;rotatable=0;points=[[0,0.5],[1,0.5]];portConstraint=eastwest;whiteSpace=wrap;html=1;" vertex="1" parent="UaEgps9c6D1fpQJmHc5u-1">
          <mxGeometry y="40" width="170" height="26" as="geometry" />
        </mxCell>
        <mxCell id="UaEgps9c6D1fpQJmHc5u-5" value="ParcelaCultivoSingular" style="swimlane;fontStyle=1;align=center;verticalAlign=top;childLayout=stackLayout;horizontal=1;startSize=26;horizontalStack=0;resizeParent=1;resizeParentMax=0;resizeLast=0;collapsible=1;marginBottom=0;whiteSpace=wrap;html=1;" vertex="1" parent="1">
          <mxGeometry x="80" y="300" width="160" height="86" as="geometry" />
        </mxCell>
        <mxCell id="UaEgps9c6D1fpQJmHc5u-6" value="- cultivo: Cultivo" style="text;strokeColor=none;fillColor=none;align=left;verticalAlign=top;spacingLeft=4;spacingRight=4;overflow=hidden;rotatable=0;points=[[0,0.5],[1,0.5]];portConstraint=eastwest;whiteSpace=wrap;html=1;" vertex="1" parent="UaEgps9c6D1fpQJmHc5u-5">
          <mxGeometry y="26" width="160" height="26" as="geometry" />
        </mxCell>
        <mxCell id="UaEgps9c6D1fpQJmHc5u-7" value="" style="line;strokeWidth=1;fillColor=none;align=left;verticalAlign=middle;spacingTop=-1;spacingLeft=3;spacingRight=3;rotatable=0;labelPosition=right;points=[];portConstraint=eastwest;strokeColor=inherit;" vertex="1" parent="UaEgps9c6D1fpQJmHc5u-5">
          <mxGeometry y="52" width="160" height="8" as="geometry" />
        </mxCell>
        <mxCell id="UaEgps9c6D1fpQJmHc5u-8" value="+ gananciaAnual(): double" style="text;strokeColor=none;fillColor=none;align=left;verticalAlign=top;spacingLeft=4;spacingRight=4;overflow=hidden;rotatable=0;points=[[0,0.5],[1,0.5]];portConstraint=eastwest;whiteSpace=wrap;html=1;" vertex="1" parent="UaEgps9c6D1fpQJmHc5u-5">
          <mxGeometry y="60" width="160" height="26" as="geometry" />
        </mxCell>
        <mxCell id="UaEgps9c6D1fpQJmHc5u-9" value="ParcelaMixta" style="swimlane;fontStyle=1;align=center;verticalAlign=top;childLayout=stackLayout;horizontal=1;startSize=26;horizontalStack=0;resizeParent=1;resizeParentMax=0;resizeLast=0;collapsible=1;marginBottom=0;whiteSpace=wrap;html=1;" vertex="1" parent="1">
          <mxGeometry x="334" y="300" width="280" height="190" as="geometry" />
        </mxCell>
        <mxCell id="UaEgps9c6D1fpQJmHc5u-10" value="- regionSuperiorIzquierda: Parcela&lt;br&gt;- regionInferiorIzquierda: Parcela&lt;br&gt;- regionSuperiorDerecha: Parcela&lt;br&gt;- regionInferiorDerecha: Parcela" style="text;strokeColor=none;fillColor=none;align=left;verticalAlign=top;spacingLeft=4;spacingRight=4;overflow=hidden;rotatable=0;points=[[0,0.5],[1,0.5]];portConstraint=eastwest;whiteSpace=wrap;html=1;" vertex="1" parent="UaEgps9c6D1fpQJmHc5u-9">
          <mxGeometry y="26" width="280" height="74" as="geometry" />
        </mxCell>
        <mxCell id="UaEgps9c6D1fpQJmHc5u-11" value="" style="line;strokeWidth=1;fillColor=none;align=left;verticalAlign=middle;spacingTop=-1;spacingLeft=3;spacingRight=3;rotatable=0;labelPosition=right;points=[];portConstraint=eastwest;strokeColor=inherit;" vertex="1" parent="UaEgps9c6D1fpQJmHc5u-9">
          <mxGeometry y="100" width="280" height="8" as="geometry" />
        </mxCell>
        <mxCell id="UaEgps9c6D1fpQJmHc5u-12" value="+ gananciaAnual(): double&lt;br&gt;+ agregarCultivoEnRegionSuperiorIzquierda()&lt;br&gt;+ agregarCultivoEnRegionInferiorIzquierda()&lt;br&gt;+ agregarCultivoEnRegionSuperiorDerecha()&lt;br&gt;+ agregarCultivoEnRegionInferiorDerecha()" style="text;strokeColor=none;fillColor=none;align=left;verticalAlign=top;spacingLeft=4;spacingRight=4;overflow=hidden;rotatable=0;points=[[0,0.5],[1,0.5]];portConstraint=eastwest;whiteSpace=wrap;html=1;" vertex="1" parent="UaEgps9c6D1fpQJmHc5u-9">
          <mxGeometry y="108" width="280" height="82" as="geometry" />
        </mxCell>
        <mxCell id="UaEgps9c6D1fpQJmHc5u-14" value="" style="endArrow=block;dashed=1;endFill=0;endSize=12;html=1;rounded=0;entryX=0.48;entryY=1.128;entryDx=0;entryDy=0;entryPerimeter=0;exitX=0.5;exitY=0;exitDx=0;exitDy=0;" edge="1" parent="1" source="UaEgps9c6D1fpQJmHc5u-5" target="UaEgps9c6D1fpQJmHc5u-2">
          <mxGeometry width="160" relative="1" as="geometry">
            <mxPoint x="200" y="330" as="sourcePoint" />
            <mxPoint x="360" y="330" as="targetPoint" />
          </mxGeometry>
        </mxCell>
        <mxCell id="UaEgps9c6D1fpQJmHc5u-15" value="" style="endArrow=block;dashed=1;endFill=0;endSize=12;html=1;rounded=0;entryX=0.564;entryY=1.096;entryDx=0;entryDy=0;entryPerimeter=0;exitX=0.15;exitY=-0.006;exitDx=0;exitDy=0;exitPerimeter=0;" edge="1" parent="1" source="UaEgps9c6D1fpQJmHc5u-9" target="UaEgps9c6D1fpQJmHc5u-2">
          <mxGeometry width="160" relative="1" as="geometry">
            <mxPoint x="170" y="310" as="sourcePoint" />
            <mxPoint x="322" y="169" as="targetPoint" />
          </mxGeometry>
        </mxCell>
        <mxCell id="UaEgps9c6D1fpQJmHc5u-22" value="Cultivo" style="swimlane;fontStyle=1;align=center;verticalAlign=top;childLayout=stackLayout;horizontal=1;startSize=26;horizontalStack=0;resizeParent=1;resizeParentMax=0;resizeLast=0;collapsible=1;marginBottom=0;whiteSpace=wrap;html=1;" vertex="1" parent="1">
          <mxGeometry x="80" y="469.5" width="160" height="86" as="geometry" />
        </mxCell>
        <mxCell id="UaEgps9c6D1fpQJmHc5u-23" value="- gananciaAnual: int" style="text;strokeColor=none;fillColor=none;align=left;verticalAlign=top;spacingLeft=4;spacingRight=4;overflow=hidden;rotatable=0;points=[[0,0.5],[1,0.5]];portConstraint=eastwest;whiteSpace=wrap;html=1;" vertex="1" parent="UaEgps9c6D1fpQJmHc5u-22">
          <mxGeometry y="26" width="160" height="26" as="geometry" />
        </mxCell>
        <mxCell id="UaEgps9c6D1fpQJmHc5u-24" value="" style="line;strokeWidth=1;fillColor=none;align=left;verticalAlign=middle;spacingTop=-1;spacingLeft=3;spacingRight=3;rotatable=0;labelPosition=right;points=[];portConstraint=eastwest;strokeColor=inherit;" vertex="1" parent="UaEgps9c6D1fpQJmHc5u-22">
          <mxGeometry y="52" width="160" height="8" as="geometry" />
        </mxCell>
        <mxCell id="UaEgps9c6D1fpQJmHc5u-25" value="+ getGananciaAnual(): int" style="text;strokeColor=none;fillColor=none;align=left;verticalAlign=top;spacingLeft=4;spacingRight=4;overflow=hidden;rotatable=0;points=[[0,0.5],[1,0.5]];portConstraint=eastwest;whiteSpace=wrap;html=1;" vertex="1" parent="UaEgps9c6D1fpQJmHc5u-22">
          <mxGeometry y="60" width="160" height="26" as="geometry" />
        </mxCell>
        <mxCell id="UaEgps9c6D1fpQJmHc5u-26" value="Soja" style="swimlane;fontStyle=1;align=center;verticalAlign=top;childLayout=stackLayout;horizontal=1;startSize=26;horizontalStack=0;resizeParent=1;resizeParentMax=0;resizeLast=0;collapsible=1;marginBottom=0;whiteSpace=wrap;html=1;" vertex="1" parent="1">
          <mxGeometry x="-50" y="639.5" width="160" height="30" as="geometry" />
        </mxCell>
        <mxCell id="UaEgps9c6D1fpQJmHc5u-30" value="Trigo" style="swimlane;fontStyle=1;align=center;verticalAlign=top;childLayout=stackLayout;horizontal=1;startSize=26;horizontalStack=0;resizeParent=1;resizeParentMax=0;resizeLast=0;collapsible=1;marginBottom=0;whiteSpace=wrap;html=1;" vertex="1" parent="1">
          <mxGeometry x="204" y="639.5" width="160" height="30" as="geometry" />
        </mxCell>
        <mxCell id="UaEgps9c6D1fpQJmHc5u-35" value="Extends" style="endArrow=block;endSize=16;endFill=0;html=1;rounded=0;exitX=0.5;exitY=0;exitDx=0;exitDy=0;entryX=0.391;entryY=1.096;entryDx=0;entryDy=0;entryPerimeter=0;" edge="1" parent="1" source="UaEgps9c6D1fpQJmHc5u-26" target="UaEgps9c6D1fpQJmHc5u-25">
          <mxGeometry width="160" relative="1" as="geometry">
            <mxPoint x="60" y="489.5" as="sourcePoint" />
            <mxPoint x="150" y="559.5" as="targetPoint" />
          </mxGeometry>
        </mxCell>
        <mxCell id="UaEgps9c6D1fpQJmHc5u-36" value="Extends" style="endArrow=block;endSize=16;endFill=0;html=1;rounded=0;exitX=0.5;exitY=0;exitDx=0;exitDy=0;" edge="1" parent="1" source="UaEgps9c6D1fpQJmHc5u-30">
          <mxGeometry width="160" relative="1" as="geometry">
            <mxPoint x="40" y="649.5" as="sourcePoint" />
            <mxPoint x="160" y="559.5" as="targetPoint" />
          </mxGeometry>
        </mxCell>
        <mxCell id="UaEgps9c6D1fpQJmHc5u-37" value="cultivo" style="endArrow=block;endFill=1;html=1;align=left;verticalAlign=top;rounded=0;entryX=0.5;entryY=0;entryDx=0;entryDy=0;exitX=0.495;exitY=1.096;exitDx=0;exitDy=0;exitPerimeter=0;" edge="1" parent="1" source="UaEgps9c6D1fpQJmHc5u-8" target="UaEgps9c6D1fpQJmHc5u-22">
          <mxGeometry x="-0.0654" y="10" relative="1" as="geometry">
            <mxPoint x="160" y="520" as="sourcePoint" />
            <mxPoint x="320" y="520" as="targetPoint" />
            <mxPoint as="offset" />
          </mxGeometry>
        </mxCell>
        <mxCell id="UaEgps9c6D1fpQJmHc5u-38" value="1" style="edgeLabel;resizable=0;html=1;align=left;verticalAlign=bottom;" connectable="0" vertex="1" parent="UaEgps9c6D1fpQJmHc5u-37">
          <mxGeometry x="-1" relative="1" as="geometry">
            <mxPoint x="121" y="282" as="offset" />
          </mxGeometry>
        </mxCell>
        <mxCell id="UaEgps9c6D1fpQJmHc5u-41" value="regionSuperiorIzquierda" style="endArrow=block;endFill=1;html=1;align=left;verticalAlign=top;rounded=0;exitX=0.922;exitY=0;exitDx=0;exitDy=0;exitPerimeter=0;entryX=1;entryY=0.25;entryDx=0;entryDy=0;" edge="1" parent="1" source="UaEgps9c6D1fpQJmHc5u-9" target="UaEgps9c6D1fpQJmHc5u-1">
          <mxGeometry x="0.2565" y="-26" relative="1" as="geometry">
            <mxPoint x="290" y="250" as="sourcePoint" />
            <mxPoint x="450" y="250" as="targetPoint" />
            <mxPoint as="offset" />
          </mxGeometry>
        </mxCell>
        <mxCell id="UaEgps9c6D1fpQJmHc5u-42" value="1" style="edgeLabel;resizable=0;html=1;align=left;verticalAlign=bottom;" connectable="0" vertex="1" parent="UaEgps9c6D1fpQJmHc5u-41">
          <mxGeometry x="-1" relative="1" as="geometry">
            <mxPoint x="-152" y="-157" as="offset" />
          </mxGeometry>
        </mxCell>
        <mxCell id="UaEgps9c6D1fpQJmHc5u-43" value="regionInferiorIzquierda" style="endArrow=block;endFill=1;html=1;align=left;verticalAlign=top;rounded=0;exitX=0.75;exitY=0;exitDx=0;exitDy=0;entryX=1;entryY=0.5;entryDx=0;entryDy=0;" edge="1" parent="1" source="UaEgps9c6D1fpQJmHc5u-9" target="UaEgps9c6D1fpQJmHc5u-2">
          <mxGeometry x="0.2306" y="-20" relative="1" as="geometry">
            <mxPoint x="602" y="310" as="sourcePoint" />
            <mxPoint x="410" y="153" as="targetPoint" />
            <mxPoint as="offset" />
          </mxGeometry>
        </mxCell>
        <mxCell id="UaEgps9c6D1fpQJmHc5u-44" value="1" style="edgeLabel;resizable=0;html=1;align=left;verticalAlign=bottom;" connectable="0" vertex="1" parent="UaEgps9c6D1fpQJmHc5u-43">
          <mxGeometry x="-1" relative="1" as="geometry">
            <mxPoint x="-124" y="-130" as="offset" />
          </mxGeometry>
        </mxCell>
        <mxCell id="UaEgps9c6D1fpQJmHc5u-48" value="regionSuperiorDerecha" style="endArrow=block;endFill=1;html=1;align=left;verticalAlign=top;rounded=0;exitX=0.594;exitY=-0.015;exitDx=0;exitDy=0;entryX=0.884;entryY=0.99;entryDx=0;entryDy=0;exitPerimeter=0;entryPerimeter=0;" edge="1" parent="1" source="UaEgps9c6D1fpQJmHc5u-9" target="UaEgps9c6D1fpQJmHc5u-2">
          <mxGeometry x="-0.0147" y="-12" relative="1" as="geometry">
            <mxPoint x="554" y="310" as="sourcePoint" />
            <mxPoint x="410" y="153" as="targetPoint" />
            <mxPoint y="1" as="offset" />
          </mxGeometry>
        </mxCell>
        <mxCell id="UaEgps9c6D1fpQJmHc5u-49" value="1" style="edgeLabel;resizable=0;html=1;align=left;verticalAlign=bottom;" connectable="0" vertex="1" parent="UaEgps9c6D1fpQJmHc5u-48">
          <mxGeometry x="-1" relative="1" as="geometry">
            <mxPoint x="-90" y="-107" as="offset" />
          </mxGeometry>
        </mxCell>
        <mxCell id="UaEgps9c6D1fpQJmHc5u-50" value="regionInferiorDerecha" style="endArrow=block;endFill=1;html=1;align=left;verticalAlign=top;rounded=0;exitX=0.412;exitY=-0.015;exitDx=0;exitDy=0;exitPerimeter=0;" edge="1" parent="1" source="UaEgps9c6D1fpQJmHc5u-9">
          <mxGeometry x="-0.4196" y="-12" relative="1" as="geometry">
            <mxPoint x="564" y="320" as="sourcePoint" />
            <mxPoint x="350" y="158" as="targetPoint" />
            <mxPoint as="offset" />
          </mxGeometry>
        </mxCell>
        <mxCell id="UaEgps9c6D1fpQJmHc5u-51" value="1" style="edgeLabel;resizable=0;html=1;align=left;verticalAlign=bottom;" connectable="0" vertex="1" parent="UaEgps9c6D1fpQJmHc5u-50">
          <mxGeometry x="-1" relative="1" as="geometry">
            <mxPoint x="-59" y="-87" as="offset" />
          </mxGeometry>
        </mxCell>
      </root>
    </mxGraphModel>
  </diagram>
</mxfile>
